<svg xmlns="http://www.w3.org/2000/svg" viewBox="0 0 121.952 98.5">
  <defs>
    <style>
      .cls-1 {
        fill: #fff;
        opacity: 0.05;
      }
    </style>
  </defs>
  <path id="iconfinder_car_2639905" class="cls-1" d="M115.538,44.146l-9.653-27.58A18.794,18.794,0,0,0,88.169,4H37.784A18.785,18.785,0,0,0,20.072,16.561l-9.653,27.58A18.784,18.784,0,0,0,2,59.835V93.119a9.381,9.381,0,0,0,18.762,0V87.2s24.77,1.224,42.214,1.224S105.19,87.2,105.19,87.2v5.915a9.381,9.381,0,0,0,18.762,0V59.835A18.788,18.788,0,0,0,115.538,44.146ZM23.553,35.018l5.375-15.357a9.383,9.383,0,0,1,8.856-6.281H88.169a9.383,9.383,0,0,1,8.856,6.281L102.4,35.018a3.355,3.355,0,0,1-3.7,4.442,224.227,224.227,0,0,0-35.727-2.627A224.226,224.226,0,0,0,27.249,39.46,3.355,3.355,0,0,1,23.553,35.018Zm-.446,34.649a7.036,7.036,0,1,1,7.036-7.036A7.038,7.038,0,0,1,23.107,69.667Zm53.94-4.69H48.9a4.69,4.69,0,0,1,0-9.381H77.048a4.69,4.69,0,0,1,0,9.381Zm25.8,4.69a7.036,7.036,0,1,1,7.036-7.036A7.038,7.038,0,0,1,102.845,69.667Z" transform="translate(-2 -4)"/>
</svg>
