<?xml version="1.0" encoding="utf-8"?>
<!-- Generator: Adobe Illustrator 23.0.1, SVG Export Plug-In . SVG Version: 6.00 Build 0)  -->
<svg version="1.1" id="Layer_1" xmlns="http://www.w3.org/2000/svg" xmlns:xlink="http://www.w3.org/1999/xlink" x="0px" y="0px"
	 viewBox="0 0 500 208" style="enable-background:new 0 0 500 208;" xml:space="preserve">
<style type="text/css">
	.st0{fill:#F44E4E;}
	.st1{fill:#E0301E;}
	.st2{fill:#060709;}
	.st3{fill:none;}
	.st4{fill:#EC2127;}
	.st5{fill:#1176AA;}
	.st6{fill:none;stroke:#40484A;stroke-linecap:round;stroke-miterlimit:10;}
	.st7{fill:none;stroke:#E0301E;stroke-width:2;stroke-linecap:round;stroke-miterlimit:10;}
	.st8{fill:none;stroke:#000000;stroke-width:2;stroke-linecap:round;stroke-miterlimit:10;}
	.st9{fill:#DFDEDE;}
	.st10{fill:#464646;}
	.st11{fill:#F68C20;}
	.st12{fill:#EE4C24;}
	.st13{fill:#FFFFFF;}
</style>
<g>
	<path class="st13" d="M81.25,151.16H62.63l-5.74,7.19h-9.75l34.19-41.68h11.12l-2.01,41.68h-9.68L81.25,151.16z M68.34,143.47
		h13.81l1.42-19.12L68.34,143.47z"/>
	<path class="st13" d="M110.34,116.66h9l-10.73,24.75c-2.52,5.81-1.07,9.81,5.43,9.81c6.37,0,11.29-4,13.81-9.81l10.73-24.75h9
		l-10.84,25c-4.5,10.37-13.5,17.44-26.12,17.44c-12.75,0-15.59-7.12-11.15-17.37L110.34,116.66z"/>
	<path class="st13" d="M162.06,124.47h-12.18l3.39-7.81h33.24l-3.39,7.81H171l-14.69,33.87h-8.93L162.06,124.47z"/>
	<path class="st13" d="M210.74,115.97c12.62,0,17.91,9,12.46,21.56c-5.45,12.56-18.53,21.56-31.16,21.56
		c-12.56,0-17.84-9-12.4-21.56C185.09,124.97,198.18,115.97,210.74,115.97z M207.33,123.85c-7.69,0-15.17,5.87-18.56,13.69
		c-3.36,7.75-1,13.69,6.69,13.69s15.26-5.94,18.62-13.69C217.46,129.72,215.01,123.85,207.33,123.85z"/>
	<path class="st13" d="M227.45,137.54c5.55-12.81,19.03-21.56,31.22-21.56c9.5,0,12.64,5,13.33,10.19l-9.25,3.75
		c-0.29-3.38-2.87-6.06-7.49-6.06c-7.25,0-15.27,5.81-18.68,13.69c-3.41,7.88-0.44,13.69,6.81,13.69c4.62,0,9.51-2.62,12.75-6.06
		l6.03,3.69c-5.25,5.19-12.69,10.25-22.19,10.25C227.79,159.1,221.9,150.35,227.45,137.54z"/>
	<path class="st13" d="M281.43,116.66h29.49l-3.31,7.62H287l-3.93,9.06h20.18l-3.31,7.62h-20.18l-4.2,9.69h20.62l-3.33,7.69h-29.49
		L281.43,116.66z"/>
	<path class="st13" d="M184.85,113.79c0,0,126-146,268,0h-37C415.85,113.79,337.85,2.79,184.85,113.79z"/>
	<g>
		<path class="st13" d="M322.95,73.45l-9.2,17.7c18.82,4.22,29.11,11.64,29.11,11.64l11-21C343.71,77.16,333.31,74.54,322.95,73.45z
			"/>
		<path class="st13" d="M290.18,88.34c7.24,0.15,13.81,0.91,19.65,2.01l7.99-17.32c-7.56-0.44-15.07-0.1-22.43,0.82L290.18,88.34z"
			/>
		<path class="st13" d="M290.45,74.55c-48.25,7.76-88.59,39.24-88.59,39.24c32.91-18.91,61.09-25.09,83.42-25.46L290.45,74.55z"/>
	</g>
	<polygon class="st13" points="329.35,136.29 318.35,122.29 319.41,116.66 314.49,116.66 319.87,136.97 295.48,158.35 
		304.35,158.29 323.15,142.99 326.97,158.35 337.59,158.35 330.55,136.89 	"/>
	<polygon class="st13" points="418.85,63.79 331.8,126.01 309.35,99.29 320.35,145.29 	"/>
</g>
</svg>
