<svg id="Download_icon" xmlns="http://www.w3.org/2000/svg" width="24" height="23.881" viewBox="0 0 24 23.881">
  <path id="Path_4772" data-name="Path 4772" d="M23.284,5.3H12.537v8.836L16,10.554a.937.937,0,0,1,1.313,0,1.09,1.09,0,0,1,0,1.433l-5.851,5.97-5.731-5.97a1.09,1.09,0,0,1,0-1.433.937.937,0,0,1,1.313,0l3.463,3.582V5.3H.6a.564.564,0,0,0-.6.6V22.255a.564.564,0,0,0,.6.6H23.4a.564.564,0,0,0,.6-.6V5.9A.757.757,0,0,0,23.284,5.3Z" transform="translate(0 1.028)"/>
  <path id="Path_4773" data-name="Path 4773" d="M10.93,0H8.9V6.328h2.03Z" transform="translate(1.727)"/>
</svg>
