<svg id="Layer_1" data-name="Layer 1" xmlns="http://www.w3.org/2000/svg" viewBox="0 0 28 28"><defs><style>.cls-1{fill:#231f20;}</style></defs><title>in-store-icons</title><circle class="cls-1" cx="8.25" cy="17.75" r="1.5"/><path class="cls-1" d="M20.75,16.78v0h-3V12.66a6.5,6.5,0,0,0,5.5-6.41V1.75h-4v2h2v2.5a4.5,4.5,0,0,1-9,0V3.75h2v-2h-4v4.5a6.5,6.5,0,0,0,5.5,6.41v4.09h-2.1a5.5,5.5,0,1,0,0,2h2.1v3.5h.08a4.74,4.74,0,1,0,4.92-5.47ZM8.25,21.25a3.5,3.5,0,1,1,3.5-3.5A3.5,3.5,0,0,1,8.25,21.25Zm12.25,3a2.75,2.75,0,0,1-2.75-2.75V18.75H20.5a2.75,2.75,0,0,1,0,5.5Z"/></svg>