<svg id="Layer_1" data-name="Layer 1" xmlns="http://www.w3.org/2000/svg" viewBox="0 0 144 144"><defs><style>.cls-1{fill:#fff;}</style></defs><title>PwC_Pictogram_Car_White_RGB</title><path class="cls-1" d="M0,0V144H144V0ZM137.86,137.86H6.14V6.14H137.86Z"/><path class="cls-1" d="M42,102.36A13.94,13.94,0,0,0,55.59,91.51H77.82a13.91,13.91,0,0,0,27.14,0H129.6V72.85l-29.1-9.24L90,47.11H29.77L16.71,65.21v26.3H28.45A13.94,13.94,0,0,0,42,102.36Zm0-6.14a7.78,7.78,0,1,1,7.78-7.78A7.8,7.8,0,0,1,42,96.22Zm49.37,0a7.78,7.78,0,1,1,7.79-7.78A7.79,7.79,0,0,1,91.39,96.22Zm-68.54-29L32.91,53.26H86.6l9.92,15.53,26.94,8.55v8H105a13.91,13.91,0,0,0-27.14,0H55.59a13.91,13.91,0,0,0-27.14,0h-5.6Z"/></svg>