<svg id="review_icon" xmlns="http://www.w3.org/2000/svg" width="24" height="24" viewBox="0 0 24 24">
  <path id="Path_4769" data-name="Path 4769" d="M11.12,10.56H22.88A12.26,12.26,0,0,0,10.88,0,13.079,13.079,0,0,0,5.6,1.2Z" transform="translate(1.12)"/>
  <path id="Path_4770" data-name="Path 4770" d="M11.84,12.3,6.2,20.58a11.487,11.487,0,0,0,4.56.96A11.968,11.968,0,0,0,22.4,12.3Z" transform="translate(1.24 2.46)"/>
  <path id="Path_4771" data-name="Path 4771" d="M3.84,20.14,8.88,12.7,3.36,3.1A12.017,12.017,0,0,0,0,11.38,11.686,11.686,0,0,0,3.84,20.14Z" transform="translate(0 0.62)"/>
</svg>
