<svg xmlns="http://www.w3.org/2000/svg" width="35.462" height="34.5" viewBox="0 0 35.462 34.5">
  <g id="Group_7973" data-name="Group 7973" transform="translate(-1024.521 -482.5)">
    <path id="Path_4722" data-name="Path 4722" d="M6.609,1030.4c-1.993,0-3.609,1.338-3.609,2.972v26.751c0,1.635,1.616,2.972,3.609,2.972H31.87c1.994,0,3.609-1.338,3.609-2.972v-20.806L24.652,1030.4Z" transform="translate(1021.521 -546.096)" fill="#fff"/>
    <path id="Path_4723" data-name="Path 4723" d="M6.609,1029.4c-1.993,0-3.609,1.338-3.609,2.972v26.751c0,1.635,1.616,2.972,3.609,2.972H31.87c1.994,0,3.609-1.338,3.609-2.972v-20.806L24.652,1029.4Z" transform="translate(1021.521 -546.9)" fill="#fff"/>
    <path id="Path_4725" data-name="Path 4725" d="M32,30.69l-7.21-7.211a10.059,10.059,0,1,0-1.31,1.31L30.69,32ZM8.058,17.056a9,9,0,1,1,9,9A9.007,9.007,0,0,1,8.058,17.056Z" transform="translate(1027.984 484)" fill="#e44838"/>
    <rect id="Rectangle_342" data-name="Rectangle 342" width="10.077" height="1.058" transform="translate(1039.914 500.56)" fill="#e44838"/>
    <rect id="Rectangle_343" data-name="Rectangle 343" width="1.058" height="10.077" transform="translate(1044.423 496.051)" fill="#e44838"/>
  </g>
</svg>
