<svg xmlns="http://www.w3.org/2000/svg" width="24" height="20.525" viewBox="0 0 24 20.525">
  <g id="Group_8138" data-name="Group 8138" transform="translate(-1172.934 -473)">
    <path id="Path_4695" data-name="Path 4695" d="M323.107,134.215A3.107,3.107,0,1,0,320,131.107,3.108,3.108,0,0,0,323.107,134.215Z" transform="translate(867.643 348.143)" fill="#741910"/>
    <path id="Path_4696" data-name="Path 4696" d="M54.5,64h-21A1.5,1.5,0,0,0,32,65.513v17.5a1.5,1.5,0,0,0,1.5,1.513h21A1.5,1.5,0,0,0,56,83.013v-17.5A1.5,1.5,0,0,0,54.5,64ZM48.977,74.567a.921.921,0,0,0-.686-.331,1.06,1.06,0,0,0-.686.3l-1,.845a1.006,1.006,0,0,1-.616.251.887.887,0,0,1-.589-.219c-.054-.048-.15-.139-.23-.219l-2.882-3.111a1.183,1.183,0,0,0-.895-.4,1.218,1.218,0,0,0-.9.417L33.714,80.26V66.336a.706.706,0,0,1,.7-.625H53.579a.679.679,0,0,1,.691.641l.016,13.919Z" transform="translate(1140.934 409)" fill="#741910"/>
  </g>
</svg>
